<svg xmlns:dc="http://purl.org/dc/elements/1.1/" xmlns:cc="http://creativecommons.org/ns#" xmlns:rdf="http://www.w3.org/1999/02/22-rdf-syntax-ns#" xmlns:svg="http://www.w3.org/2000/svg" xmlns="http://www.w3.org/2000/svg" xmlns:xlink="http://www.w3.org/1999/xlink" id="svg156849" viewBox="0 0 1024 768" height="768px" width="1024px" version="1.1">
  <metadata id="metadata156855">
    <rdf:rdf>
      <cc:work rdf:about="">
        <dc:format>image/svg+xml</dc:format>
        <dc:type rdf:resource="http://purl.org/dc/dcmitype/StillImage"></dc:type>
      </cc:work>
    </rdf:rdf>
  </metadata>
  <defs id="defs156853"></defs>
  <linearGradient spreadMethod="pad" y2="30%" x2="-10%" y1="120%" x1="30%" id="3d_gradient2-logo-e374b503-ee33-4191-b71c-a4122cfab856">
    <stop id="stop156830" stop-opacity="1" stop-color="#ffffff" offset="0%"></stop>
    <stop id="stop156832" stop-opacity="1" stop-color="#000000" offset="100%"></stop>
  </linearGradient>
  <linearGradient gradientTransform="rotate(-30)" spreadMethod="pad" y2="30%" x2="-10%" y1="120%" x1="30%" id="3d_gradient3-logo-e374b503-ee33-4191-b71c-a4122cfab856">
    <stop id="stop156835" stop-opacity="1" stop-color="#ffffff" offset="0%"></stop>
    <stop id="stop156837" stop-opacity="1" stop-color="#cccccc" offset="50%"></stop>
    <stop id="stop156839" stop-opacity="1" stop-color="#000000" offset="100%"></stop>
  </linearGradient>
  <g id="logo-group">
    <image xlink:href="" id="container" x="272" y="144" width="480" height="480" style="display: none;" transform="translate(0 0)"></image>
    <g id="logo-center" transform="translate(-1.1368683772161603e-13 0)">
      <image xlink:href="" id="icon_container" x="0" y="0" style="display: none;"></image>
      <g id="slogan" style="font-style:normal;font-weight:600;font-size:32px;line-height:1;font-family:Quicksand;font-variant-ligatures:none;text-align:center;text-anchor:middle" transform="translate(0 0)"></g>
      <g id="title" style="font-style:normal;font-weight:300;font-size:72px;line-height:1;font-family:'Montserrat Light Alt1';font-variant-ligatures:none;text-align:center;text-anchor:middle" transform="translate(0 0)">
        <path id="path156858" style="font-style:normal;font-weight:300;font-size:72px;line-height:1;font-family:'Montserrat Light Alt1';font-variant-ligatures:none;text-align:center;text-anchor:middle" d="m 318.90894,-1.512 c 3.312,1.296 6.84,1.872 10.584,1.872 3.96,0 7.344,-0.576 10.08,-1.8 2.736,-1.152 4.752,-2.808 6.048,-4.824 1.296,-2.016 2.016,-4.248 2.016,-6.696 0,-2.952 -0.792,-5.328 -2.376,-7.056 -1.584,-1.728 -3.456,-3.096 -5.616,-3.96 -2.232,-0.864 -5.184,-1.728 -8.856,-2.664 -3.312,-0.792 -5.976,-1.584 -7.848,-2.304 -1.944,-0.72 -3.528,-1.728 -4.824,-3.096 -1.296,-1.296 -1.944,-3.096 -1.944,-5.4 0,-2.952 1.152,-5.4 3.6,-7.272 2.376,-1.872 5.904,-2.808 10.584,-2.808 2.304,0 4.68,0.36 7.128,1.08 2.448,0.72 4.68,1.8 6.696,3.168 l 1.368,-2.952 c -2.016,-1.368 -4.32,-2.448 -6.984,-3.312 -2.736,-0.792 -5.472,-1.224 -8.208,-1.224 -4.032,0 -7.344,0.648 -10.008,1.8 -2.664,1.224 -4.608,2.88 -5.904,4.896 -1.296,2.016 -1.944,4.248 -1.944,6.696 0,3.024 0.72,5.472 2.304,7.272 1.584,1.8 3.456,3.096 5.688,3.96 2.232,0.864 5.184,1.8 8.928,2.664 3.24,0.792 5.832,1.512 7.776,2.232 1.872,0.72 3.528,1.8 4.824,3.096 1.296,1.368 1.944,3.168 1.944,5.4 0,2.952 -1.224,5.328 -3.672,7.128 -2.448,1.872 -6.12,2.736 -10.872,2.736 -3.312,0 -6.48,-0.576 -9.504,-1.728 -3.024,-1.152 -5.4,-2.736 -7.128,-4.608 l -1.656,2.736 c 1.872,2.016 4.464,3.672 7.776,4.968 z" stroke-width="0" stroke-linejoin="miter" stroke-miterlimit="2" fill="#3a4759" stroke="#3a4759" transform="translate(0 302.31424) translate(288.98386715 47.0804) scale(1.11) translate(-311.13294 50.76)"></path>
        <path id="path156860" style="font-style:normal;font-weight:300;font-size:72px;line-height:1;font-family:'Montserrat Light Alt1';font-variant-ligatures:none;text-align:center;text-anchor:middle" d="m 416.71194,-33.768 c -2.664,-2.736 -6.336,-4.104 -10.944,-4.104 -3.6,0 -6.696,0.864 -9.36,2.448 -2.664,1.656 -4.608,3.888 -5.832,6.624 -1.008,-2.952 -2.736,-5.184 -5.112,-6.768 -2.376,-1.512 -5.256,-2.304 -8.64,-2.304 -3.456,0 -6.408,0.792 -8.856,2.232 -2.448,1.44 -4.32,3.528 -5.544,6.12 v -8.064 h -3.456 V 0 h 3.6 v -20.016 c 0,-4.464 1.224,-7.992 3.672,-10.656 2.448,-2.592 5.832,-3.96 10.08,-3.96 3.672,0 6.552,1.152 8.64,3.312 2.016,2.232 3.096,5.472 3.096,9.648 V 0 h 3.6 v -20.016 c 0,-4.464 1.224,-7.992 3.672,-10.656 2.448,-2.592 5.832,-3.96 10.08,-3.96 3.672,0 6.552,1.152 8.64,3.312 2.016,2.232 3.096,5.472 3.096,9.648 V 0 h 3.6 v -21.96 c 0,-5.112 -1.368,-9.072 -4.032,-11.808 z" stroke-width="0" stroke-linejoin="miter" stroke-miterlimit="2" fill="#3a4759" stroke="#3a4759" transform="translate(0 302.31424) translate(342.08071714999994 61.38607999999999) scale(1.11) translate(-358.96794 37.872)"></path>
        <path id="path156862" style="font-style:normal;font-weight:300;font-size:72px;line-height:1;font-family:'Montserrat Light Alt1';font-variant-ligatures:none;text-align:center;text-anchor:middle" d="m 459.00856,-34.272 c -2.52,-2.376 -6.12,-3.6 -10.728,-3.6 -2.88,0 -5.688,0.504 -8.28,1.44 -2.664,0.936 -4.896,2.232 -6.768,3.888 l 1.8,2.592 c 1.584,-1.44 3.456,-2.592 5.76,-3.456 2.304,-0.864 4.68,-1.296 7.2,-1.296 3.6,0 6.408,0.936 8.28,2.736 1.872,1.872 2.88,4.536 2.88,7.992 v 3.024 h -12.888 c -4.896,0 -8.496,1.008 -10.728,2.952 -2.232,1.944 -3.312,4.464 -3.312,7.56 0,3.24 1.152,5.832 3.6,7.776 2.448,2.016 5.76,2.952 9.936,2.952 3.168,0 5.976,-0.576 8.28,-1.8 2.304,-1.224 4.032,-2.952 5.256,-5.184 V 0 h 3.456 v -23.832 c 0,-4.608 -1.296,-8.064 -3.744,-10.44 z m -4.824,29.448 c -2.16,1.44 -4.824,2.16 -7.92,2.16 -3.312,0 -5.904,-0.648 -7.704,-2.088 -1.872,-1.44 -2.736,-3.384 -2.736,-5.832 0,-2.304 0.792,-4.176 2.448,-5.544 1.656,-1.296 4.32,-2.016 8.064,-2.016 h 12.816 v 7.056 c -1.152,2.736 -2.808,4.824 -4.968,6.264 z" stroke-width="0" stroke-linejoin="miter" stroke-miterlimit="2" fill="#3a4759" stroke="#3a4759" transform="translate(0 302.31424) translate(423.39556534999997 61.38607999999999) scale(1.11) translate(-432.22456 37.872)"></path>
        <path id="path156864" style="font-style:normal;font-weight:300;font-size:72px;line-height:1;font-family:'Montserrat Light Alt1';font-variant-ligatures:none;text-align:center;text-anchor:middle" d="m 486.51144,-35.64 c -2.448,1.44 -4.248,3.528 -5.4,6.264 v -8.208 h -3.456 V 0 h 3.6 v -19.584 c 0,-4.608 1.152,-8.28 3.528,-10.872 2.304,-2.592 5.616,-3.96 9.792,-3.96 l 0.864,0.072 v -3.528 c -3.528,0 -6.48,0.792 -8.928,2.232 z" stroke-width="0" stroke-linejoin="miter" stroke-miterlimit="2" fill="#3a4759" stroke="#3a4759" transform="translate(0 302.31424) translate(473.82384214999996 61.38607999999999) scale(1.11) translate(-477.65544 37.872)"></path>
        <path id="path156866" style="font-style:normal;font-weight:300;font-size:72px;line-height:1;font-family:'Montserrat Light Alt1';font-variant-ligatures:none;text-align:center;text-anchor:middle" d="m 525.83469,-2.376 -1.512,-2.52 c -1.584,1.44 -3.528,2.088 -5.832,2.088 -2.304,0 -4.104,-0.576 -5.256,-1.872 -1.152,-1.296 -1.728,-3.168 -1.728,-5.616 v -24.192 h 11.952 v -3.096 h -11.952 v -8.208 h -3.6 v 8.208 h -6.912 v 3.096 h 6.912 v 24.552 c 0,3.24 0.864,5.76 2.664,7.56 1.728,1.8 4.248,2.664 7.56,2.664 1.44,0 2.88,-0.216 4.248,-0.648 1.368,-0.432 2.52,-1.152 3.456,-2.016 z" stroke-width="0" stroke-linejoin="miter" stroke-miterlimit="2" fill="#3a4759" stroke="#3a4759" transform="translate(0 302.31424) translate(499.73040965 52.594879999999996) scale(1.11) translate(-500.99469 45.792)"></path>
        <path id="path156868" style="font-style:normal;font-weight:300;font-size:72px;line-height:1;font-family:'Montserrat Light Alt1';font-variant-ligatures:none;text-align:center;text-anchor:middle" d="m 569.64219,-27.216 h -32.616 v 3.24 h 32.616 z m 0,-23.184 h -32.616 v 3.312 h 32.616 z m -32.616,47.088 V 0 h 32.616 v -3.312 z" stroke-width="0" stroke-linejoin="miter" stroke-miterlimit="2" fill="#e6dfcd" stroke="#e6dfcd" transform="translate(0 302.31424) translate(539.72537465 47.48) scale(1.11) translate(-537.02619 50.4)"></path>
        <path id="path156870" style="font-style:normal;font-weight:300;font-size:72px;line-height:1;font-family:'Montserrat Light Alt1';font-variant-ligatures:none;text-align:center;text-anchor:middle" d="m 616.81344,-53.424 h -3.6 v 24.552 c -1.584,-2.808 -3.672,-5.04 -6.336,-6.624 -2.664,-1.584 -5.688,-2.376 -9,-2.376 -3.528,0 -6.696,0.864 -9.504,2.448 -2.88,1.584 -5.112,3.888 -6.696,6.768 -1.584,2.88 -2.376,6.192 -2.376,9.864 0,3.744 0.792,6.984 2.376,9.864 1.584,2.88 3.816,5.184 6.696,6.768 2.808,1.656 5.976,2.448 9.504,2.448 3.384,0 6.408,-0.792 9.144,-2.376 2.664,-1.584 4.752,-3.816 6.264,-6.768 V 0 h 3.528 z m -11.016,48.456 c -2.304,1.368 -4.824,2.016 -7.704,2.016 -2.88,0 -5.472,-0.648 -7.776,-2.016 -2.304,-1.296 -4.104,-3.168 -5.4,-5.616 -1.296,-2.376 -1.944,-5.112 -1.944,-8.208 0,-3.024 0.648,-5.76 1.944,-8.208 1.296,-2.376 3.096,-4.248 5.4,-5.616 2.304,-1.296 4.896,-2.016 7.776,-2.016 2.88,0 5.4,0.72 7.704,2.016 2.304,1.368 4.104,3.24 5.4,5.616 1.296,2.448 2.016,5.184 2.016,8.208 0,3.096 -0.72,5.832 -2.016,8.208 -1.296,2.448 -3.096,4.32 -5.4,5.616 z" stroke-width="0" stroke-linejoin="miter" stroke-miterlimit="2" fill="#e6dfcd" stroke="#e6dfcd" transform="translate(0 302.31424) translate(586.65090215 44.12336) scale(1.11) translate(-579.30144 53.424)"></path>
        <path id="path156872" style="font-style:normal;font-weight:300;font-size:72px;line-height:1;font-family:'Montserrat Light Alt1';font-variant-ligatures:none;text-align:center;text-anchor:middle" d="m 665.90169,-37.584 h -3.456 v 8.496 c -1.512,-2.736 -3.672,-4.896 -6.408,-6.48 -2.808,-1.512 -5.904,-2.304 -9.36,-2.304 -3.528,0 -6.696,0.792 -9.576,2.304 -2.88,1.584 -5.112,3.744 -6.696,6.48 -1.656,2.808 -2.448,5.976 -2.448,9.432 0,3.528 0.792,6.696 2.448,9.432 1.584,2.808 3.816,4.968 6.696,6.552 2.88,1.584 6.048,2.304 9.576,2.304 3.384,0 6.48,-0.72 9.216,-2.232 2.736,-1.44 4.824,-3.6 6.408,-6.336 V -3.6 c 0,5.04 -1.224,8.712 -3.6,11.088 -2.448,2.376 -6.12,3.528 -11.088,3.528 -3.024,0 -5.832,-0.432 -8.424,-1.44 -2.664,-0.936 -4.896,-2.304 -6.768,-4.032 l -1.944,2.736 c 1.872,1.872 4.32,3.384 7.416,4.392 3.024,1.08 6.336,1.584 9.792,1.584 6.048,0 10.656,-1.44 13.68,-4.464 3.024,-2.952 4.536,-7.56 4.536,-13.824 z m -11.016,31.104 c -2.376,1.296 -5.04,1.872 -7.92,1.872 -2.952,0 -5.616,-0.576 -7.92,-1.872 -2.304,-1.296 -4.176,-3.024 -5.472,-5.328 -1.296,-2.304 -1.944,-4.896 -1.944,-7.848 0,-2.88 0.648,-5.472 1.944,-7.776 1.296,-2.232 3.168,-3.96 5.472,-5.256 2.304,-1.296 4.968,-1.944 7.92,-1.944 2.88,0 5.544,0.648 7.92,1.944 2.304,1.296 4.176,3.024 5.472,5.256 1.296,2.304 2.016,4.896 2.016,7.776 0,2.952 -0.72,5.544 -2.016,7.848 -1.296,2.304 -3.168,4.032 -5.472,5.328 z" stroke-width="0" stroke-linejoin="miter" stroke-miterlimit="2" fill="#e6dfcd" stroke="#e6dfcd" transform="translate(0 302.31424) translate(640.6593396500001 61.38607999999999) scale(1.11) translate(-627.95769 37.872)"></path>
        <path id="path156874" style="font-style:normal;font-weight:300;font-size:72px;line-height:1;font-family:'Montserrat Light Alt1';font-variant-ligatures:none;text-align:center;text-anchor:middle" d="m 703.31581,-4.248 c -2.088,0.864 -4.392,1.296 -6.768,1.296 -3.888,0 -7.128,-1.008 -9.864,-3.024 -2.736,-2.016 -4.608,-4.752 -5.472,-8.208 l 31.752,-6.192 c -0.216,-3.312 -1.008,-6.264 -2.592,-8.928 -1.584,-2.664 -3.672,-4.752 -6.264,-6.264 -2.592,-1.512 -5.544,-2.304 -8.784,-2.304 -3.528,0 -6.696,0.864 -9.432,2.448 -2.808,1.656 -4.968,3.888 -6.552,6.768 -1.584,2.88 -2.304,6.192 -2.304,9.864 0,3.744 0.792,6.984 2.448,9.864 1.656,2.88 3.96,5.184 6.912,6.768 2.952,1.656 6.264,2.448 10.08,2.448 2.88,0 5.544,-0.504 8.064,-1.512 2.376,-1.008 4.464,-2.52 6.12,-4.608 l -2.088,-2.376 c -1.44,1.8 -3.168,3.096 -5.256,3.96 z m -15.624,-28.44 c 2.232,-1.296 4.752,-2.016 7.632,-2.016 2.448,0 4.752,0.576 6.768,1.656 2.016,1.08 3.6,2.592 4.896,4.392 1.224,1.872 2.016,3.96 2.376,6.192 l -28.656,5.616 c -0.144,-0.936 -0.144,-1.656 -0.144,-2.232 0,-2.952 0.576,-5.688 1.872,-8.064 1.224,-2.376 2.952,-4.248 5.256,-5.544 z" stroke-width="0" stroke-linejoin="miter" stroke-miterlimit="2" fill="#e6dfcd" stroke="#e6dfcd" transform="translate(0 302.31424) translate(695.1360528500002 61.38607999999999) scale(1.11) translate(-677.03581 37.872)"></path>
      </g>
      <image xlink:href="" id="icon" x="0" y="0" style="display: none;"></image>
    </g>
  </g>
</svg>